<svg version="1.1" id="Layer_1" xmlns="http://www.w3.org/2000/svg" xmlns:xlink="http://www.w3.org/1999/xlink" x="0px" y="0px" height="128px" width="128px" viewBox="0 0 128 128" enable-background="new 0 0 128 128" xml:space="preserve">
     <g>
	<g>
		<path fill="#000000" d="M108.07,33.743c-1.027-0.759-2.195-1.143-3.505-1.143
			c-0.278,0-0.688,0.05-1.237,0.151l-40.844,7.484L80.118,4.889c0.347-0.509,0.521-0.967,0.521-1.373
			c0-0.866-0.452-1.615-1.342-2.251c-0.896-0.641-1.997-0.957-3.301-0.957H42.167c-1.1,0-2.058,0.23-2.886,0.686
			c-0.823,0.458-1.378,1.044-1.65,1.757L16.899,65.732c-0.345,1.221,0.106,2.213,1.342,2.979c0.895,0.558,1.959,0.838,3.196,0.838
			c0.549,0,0.964-0.024,1.236-0.074l41.876-7.714l-20.317,61.682c-0.278,0.815-0.123,1.578,0.464,2.292
			c0.587,0.714,1.463,1.194,2.633,1.451c0.685,0.099,1.168,0.15,1.44,0.15c1.997,0,3.436-0.637,4.332-1.907l55.692-88.323
			C109.553,35.884,109.313,34.763,108.07,33.743"/>
	</g>
</g>
</svg>
