<svg version="1.1" id="Layer_1" xmlns="http://www.w3.org/2000/svg" xmlns:xlink="http://www.w3.org/1999/xlink" x="0px" y="0px"
    height="500px" width="500px"
     viewBox="0 0 500 500" enable-background="new 0 0 500 500" xml:space="preserve">
<g>
	<g>
		<path fill="#892062" d="M230.8,14.7c4.3-3.7,10.3-2.7,15.5-2.8c21.1-0.2,42.3-0.8,63.4-0.6c13.7,0.4,24.8,9,36.1,15.6
			c19.5,11.5,38.9,23.2,58.4,34.8c4.2,2.3,6,8.4,3.1,12.4c-2.7,3.4-6,6.3-8.8,9.5c-25.9,26.4-51.7,52.9-77.6,79.2
			c-4.2,4.7-8.7,9.9-15.2,11.3c-7,2.1-13.9-1.2-20.5-3.2c-6.7-2.3-13.5-4.4-20.3-6.6c-7.6-2.2-13.6-9.1-14.8-16.9
			c-1.7-9.5-3.3-19.1-5.1-28.6c-2.2-12.2-4.3-24.5-6.5-36.8c-3.2-18.6-6.5-37.3-9.8-55.9C228,22.3,227.8,17.8,230.8,14.7z"/>
	</g>
	<g>
		<path fill="#D01A71" d="M197.6,17.3c3.8-0.8,7.8-2,11.6-0.6c3.8,1.5,6.5,5.2,7,9.2c7,38.2,14,76.3,21,114.5
			c1.1,6.3,3.2,13.2,0.1,19.3c-1.6,4.2-5.3,7-9.1,9.2c-7.1,4.2-14.1,8.6-21.1,12.9c-6.4,4.3-15.5,4.4-21.9,0
			c-35.2-23.1-70.3-46.6-105.5-69.8c-4.1-2.9-9.9-5.4-10.3-11.1c-0.6-6.3,5.1-10.1,8.8-14.2c13.1-14.2,26.6-28,39.7-42.2
			c5.9-6.7,13.8-11.8,22.4-14.2C159.4,26,178.6,21.8,197.6,17.3z"/>
	</g>
	<g>
		<path fill="#DB2C29" d="M51.9,118.4c3.9-1.7,8.6-1.3,12.2,1.1c35,22.3,69.9,44.8,104.9,67.2c4.8,3.1,10.3,5.7,12.9,11.1
			c3.5,6.5,1.4,14-0.1,20.7c-1.5,6.4-2.4,12.9-4,19.3c-1.7,6.7-7.9,11.8-14.7,12.6c-42.4,6.6-84.8,13.1-127.2,19.8
			c-4.3,0.6-8.9,2-13.1,0.4c-3.5-1.7-6.9-4.6-7.5-8.7c-3.5-18.8-6.8-37.6-10.4-56.4c-2.5-9.6-2.3-20.5,3.6-28.9
			c11.9-16.8,23.8-33.5,35.6-50.3C46.4,123.4,48.2,119.7,51.9,118.4z"/>
	</g>
	<g>
		<path fill="#2B308B" d="M242.6,178c4.9-1.6,10.3-1.6,15.1,0c10.3,3.4,20.6,7,30.9,10.4c6.5,2,12.3,6.7,15.4,12.8
			c7.1,14.1,14.5,28,21.5,42.2c4.8,11.1-1.1,22.4-3.9,33.1c-2.7,8.9-4.4,19.9-13.7,24.6c-11.2,4.9-22.7,9.2-33.9,13.9
			c-5.7,2.3-11.5,5.2-17.8,5.3c-6.6,0.5-12.8-2.1-19-3.9c-5.6-1.8-11.7-2.7-16.4-6.5c-4.8-3.3-7.4-8.7-10.2-13.6
			c-5.7-10.3-11.7-20.5-17.4-30.8c-3.5-6.1-4.1-13.7-2.1-20.4c2.8-10.8,5.6-21.6,8.5-32.5c1.7-7.1,6.3-13.5,12.8-16.8
			C222.5,189.7,232.2,183.2,242.6,178z"/>
	</g>
	<g>
		<path fill="#00B389" d="M444.9,250.4c13.3-0.6,26.6-1.6,39.9-1.9c5.8-0.6,11.1,5,10.7,10.7c0.3,12.7-0.5,25.3-0.4,38
			c-1.1,12.1,1.8,24.9-3.4,36.3c-2.3,6.2-7.2,10.8-11.3,15.8c-13.4,15.8-26.9,31.5-40.3,47.2c-2.5,2.9-6.6,4.6-10.4,3.5
			c-4.8-1-7.4-5.5-10.6-8.7c-26.5-28.1-52.9-56.4-79.5-84.4c-5.3-5.7-7.3-14.3-5.2-21.8c1.7-6.3,3.2-12.8,5.1-19
			c1.8-6.3,8.2-10.6,14.6-11.1C384.4,253.5,414.6,251.9,444.9,250.4z"/>
	</g>
	<g>
		<path fill="#EC8B24" d="M161.8,266.6c7.7-1.9,16.6,1.3,20.3,8.5c5,9.3,9.9,18.7,14.9,28c3.3,5.5,3.2,12.8,0.1,18.3
			c-3.2,4.8-7.7,8.3-11.5,12.6c-24.3,25.6-48.8,51-73,76.6c-3.8,3.6-6.9,9.3-12.8,9.3c-6.7,1.6-11.7-3.8-16.5-7.5
			c-12.2-10-24.4-20-36.6-29.8c-6.6-5.3-11.3-12.9-12.8-21.3c-3.8-20.4-7.4-40.8-11.2-61.2c-1.6-6.1,2.4-13.3,8.9-14
			C74.9,279.6,118.4,273.1,161.8,266.6z"/>
	</g>
	<g>
		<path fill="#6BA443" d="M314.4,314.7c5.6-1.3,12.1-0.2,16.4,4c28.3,30.6,57,60.8,85.3,91.5c5.6,4.5,5.2,14-0.8,17.9
			c-16.6,13-33.1,26.3-49.7,39.5c-5.4,4.3-10.7,9-17.4,11.1c-5.9,2.4-12.3,2.5-18.5,2.6c-13.7,0.3-27.4,0.9-41,1.3
			c-4.1,0.2-8.4-1.3-10.8-4.8c-3.3-4.4-2.5-10.1-3-15.2c-2.4-37.7-5.1-75.4-7.3-113.1c-1-7.8,3.4-15.9,10.8-18.8
			C290.4,325.3,302.2,319.5,314.4,314.7z"/>
	</g>
	<g>
		<path fill="#CDDC29" d="M215.8,327.8c8.3-2.1,16.6,1.8,24.5,3.7c7.4,1.8,12.5,9,12.7,16.5c2.9,42.9,6.4,85.7,9.1,128.6
			c0.8,5.7-4.2,11.7-10.1,11.1c-18.9-0.3-37.7-1.4-56.6-2c-10-0.2-19.9-3.5-27.9-9.5c-15.7-10.7-31.4-21.3-47-32
			c-5.4-3.3-5.8-11.5-1.3-15.6c27.8-30.5,55.7-61,83.7-91.4C206.3,333,210.5,329.2,215.8,327.8z"/>
	</g>
</g>
<g>
	<g>
		<path fill="#0B85C8" d="M425.1,81.1c4.1-1.7,9.3-0.7,12.2,2.8c14.5,16.5,28.9,33.2,43.4,49.7c6,6.5,10.1,15,10.8,23.8
			c1.8,21.3,3.6,42.5,5.5,63.7c0.6,6-4.1,12.2-10.4,12.2c-42.9,2.5-85.8,4.4-128.7,6.8c-7.9,0.6-15.6-4.1-19.1-11.1
			c-5.2-9.9-10.5-19.7-15.8-29.5c-3.6-5.9-3.3-14.1,1.2-19.4c30-30.2,60.5-60,90.5-90.2C417.9,86.9,420.9,83.2,425.1,81.1z"/>
	</g>
	<g>
		<path fill="#00B389" d="M444.9,250.4c13.3-0.6,26.6-1.6,39.9-1.9c5.8-0.6,11.1,5,10.7,10.7c0.3,12.7-0.5,25.3-0.4,38
			c-1.1,12.1,1.8,24.9-3.4,36.3c-2.3,6.2-7.2,10.8-11.3,15.8c-13.4,15.8-26.9,31.5-40.3,47.2c-2.5,2.9-6.6,4.6-10.4,3.5
			c-4.8-1-7.4-5.5-10.6-8.7c-26.5-28.1-52.9-56.4-79.5-84.4c-5.3-5.7-7.3-14.3-5.2-21.8c1.7-6.3,3.2-12.8,5.1-19
			c1.8-6.3,8.2-10.6,14.6-11.1C384.4,253.5,414.6,251.9,444.9,250.4z"/>
	</g>
</g>
</svg>