<svg version="1.1" id="Layer_1" xmlns="http://www.w3.org/2000/svg" xmlns:xlink="http://www.w3.org/1999/xlink" x="0px" y="0px" height="128px" width="128px" viewBox="0 0 128 128" enable-background="new 0 0 128 128" xml:space="preserve">
     <g>
<g id="Layer_6">
	<path fill="#000000" d="M93.2,63.8l31.6-31.6c2-2,3-4.4,3-7.3s-1-5.3-3-7.3L110.2,3c-2-2-4.4-3-7.3-3c-2.9,0-5.3,1-7.3,3L64,34.6&#xA;		L32.4,3c-2-2-4.4-3-7.3-3s-5.3,1-7.3,3L3.2,17.6c-2,2-3,4.4-3,7.3s1,5.3,3,7.3l31.6,31.6L3.2,95.4c-2,2-3,4.4-3,7.3&#xA;		c0,2.9,1,5.3,3,7.3l14.6,14.6c2,2,4.4,3,7.3,3s5.3-1,7.3-3L64,93l31.6,31.6c2,2,4.4,3,7.3,3c2.9,0,5.3-1,7.3-3l14.6-14.6&#xA;		c2-2,3-4.4,3-7.3c0-2.9-1-5.3-3-7.3L93.2,63.8z M93.2,63.8" />
</g>
</g>
</svg>