<svg version="1.1" id="Layer_1" xmlns="http://www.w3.org/2000/svg" xmlns:xlink="http://www.w3.org/1999/xlink" x="0px" y="0px" height="500px" width="500px" viewBox="0 0 500 500" enable-background="new 0 0 500 500" xml:space="preserve">
	<g transform="matrix(1.0414817,0,0,1.0448302,-9.5934555,-2.2113227)" style="fill:none;stroke:#000000;stroke-width:13.27770329;stroke-miterlimit:4;stroke-dasharray:none;stroke-opacity:1">
		<path style="fill:none;stroke:#000000;stroke-width:13.27770329;stroke-miterlimit:4;stroke-dasharray:none;stroke-opacity:1" d="m 197.6,17.3 c 3.8,-0.8 7.8,-2 11.6,-0.6 3.8,1.5 6.5,5.2 7,9.2 7,38.2 14,76.3 21,114.5 1.1,6.3 3.2,13.2 0.1,19.3 -1.6,4.2 -5.3,7 -9.1,9.2 -7.1,4.2 -14.1,8.6 -21.1,12.9 -6.4,4.3 -15.5,4.4 -21.9,0 C 150,158.7 114.9,135.2 79.7,112 c -4.1,-2.9 -9.9,-5.4 -10.3,-11.1 -0.6,-6.3 5.1,-10.1 8.8,-14.2 13.1,-14.2 26.6,-28 39.7,-42.2 5.9,-6.7 13.8,-11.8 22.4,-14.2 19.1,-4.3 38.3,-8.5 57.3,-13 z" />
	</g>
</svg>