<svg version="1.1" id="Layer_1" xmlns="http://www.w3.org/2000/svg" xmlns:xlink="http://www.w3.org/1999/xlink" x="0px" y="0px"
    height="500px" width="500px"
     viewBox="0 0 500 500" enable-background="new 0 0 500 500" xml:space="preserve">
<g>
	<g>
		<path fill="#6BA443" d="M314.4,314.7c5.6-1.3,12.1-0.2,16.4,4c28.3,30.6,57,60.8,85.3,91.5c5.6,4.5,5.2,14-0.8,17.9
			c-16.6,13-33.1,26.3-49.7,39.5c-5.4,4.3-10.7,9-17.4,11.1c-5.9,2.4-12.3,2.5-18.5,2.6c-13.7,0.3-27.4,0.9-41,1.3
			c-4.1,0.2-8.4-1.3-10.8-4.8c-3.3-4.4-2.5-10.1-3-15.2c-2.4-37.7-5.1-75.4-7.3-113.1c-1-7.8,3.4-15.9,10.8-18.8
			C290.4,325.3,302.2,319.5,314.4,314.7z"/>
	</g>
</g>
</svg>