<svg version="1.1" id="Layer_1" xmlns="http://www.w3.org/2000/svg" xmlns:xlink="http://www.w3.org/1999/xlink" x="0px" y="0px"
    height="500px" width="500px"
     viewBox="0 0 500 500" enable-background="new 0 0 500 500" xml:space="preserve">
<g>
	<g>
		<path fill="#CDDC29" d="M215.8,327.8c8.3-2.1,16.6,1.8,24.5,3.7c7.4,1.8,12.5,9,12.7,16.5c2.9,42.9,6.4,85.7,9.1,128.6
			c0.8,5.7-4.2,11.7-10.1,11.1c-18.9-0.3-37.7-1.4-56.6-2c-10-0.2-19.9-3.5-27.9-9.5c-15.7-10.7-31.4-21.3-47-32
			c-5.4-3.3-5.8-11.5-1.3-15.6c27.8-30.5,55.7-61,83.7-91.4C206.3,333,210.5,329.2,215.8,327.8z"/>
	</g>
</g>
</svg>