<svg version="1.1" id="Layer_1" xmlns="http://www.w3.org/2000/svg" xmlns:xlink="http://www.w3.org/1999/xlink" x="0px" y="0px"
    height="500px" width="500px"
     viewBox="0 0 500 500" enable-background="new 0 0 500 500" xml:space="preserve">
<g>
	<g>
		<path fill="#D01A71" d="M197.6,17.3c3.8-0.8,7.8-2,11.6-0.6c3.8,1.5,6.5,5.2,7,9.2c7,38.2,14,76.3,21,114.5
			c1.1,6.3,3.2,13.2,0.1,19.3c-1.6,4.2-5.3,7-9.1,9.2c-7.1,4.2-14.1,8.6-21.1,12.9c-6.4,4.3-15.5,4.4-21.9,0
			c-35.2-23.1-70.3-46.6-105.5-69.8c-4.1-2.9-9.9-5.4-10.3-11.1c-0.6-6.3,5.1-10.1,8.8-14.2c13.1-14.2,26.6-28,39.7-42.2
			c5.9-6.7,13.8-11.8,22.4-14.2C159.4,26,178.6,21.8,197.6,17.3z"/>
	</g>
</g>
</svg>