<svg version="1.1" id="Layer_1" xmlns="http://www.w3.org/2000/svg" xmlns:xlink="http://www.w3.org/1999/xlink" x="0px" y="0px"
    height="500px" width="500px"
     viewBox="0 0 500 500" enable-background="new 0 0 500 500" xml:space="preserve">
	 <g
       transform="matrix(1.0350653,0,0,1.0276332,-11.46812,-1.4692356)"
       style="stroke:#000000;stroke-width:9.6114254;stroke-miterlimit:4;stroke-dasharray:none;stroke-opacity:1">
	   <path
         style="fill:none;fill-opacity:1;stroke:#000000;stroke-width:9.6114254;stroke-miterlimit:4;stroke-dasharray:none;stroke-opacity:1"
         d="m 230.8,14.7 c 4.3,-3.7 10.3,-2.7 15.5,-2.8 21.1,-0.2 42.3,-0.8 63.4,-0.6 13.7,0.4 24.8,9 36.1,15.6 19.5,11.5 38.9,23.2 58.4,34.8 4.2,2.3 6,8.4 3.1,12.4 -2.7,3.4 -6,6.3 -8.8,9.5 -25.9,26.4 -51.7,52.9 -77.6,79.2 -4.2,4.7 -8.7,9.9 -15.2,11.3 -7,2.1 -13.9,-1.2 -20.5,-3.2 -6.7,-2.3 -13.5,-4.4 -20.3,-6.6 -7.6,-2.2 -13.6,-9.1 -14.8,-16.9 -1.7,-9.5 -3.3,-19.1 -5.1,-28.6 -2.2,-12.2 -4.3,-24.5 -6.5,-36.8 -3.2,-18.6 -6.5,-37.3 -9.8,-55.9 -0.7,-3.8 -0.9,-8.3 2.1,-11.4 z"
         />
	</g>
</svg>