<svg version="1.1" id="Layer_1" xmlns="http://www.w3.org/2000/svg" xmlns:xlink="http://www.w3.org/1999/xlink" x="0px" y="0px"
    height="500px" width="500px"
     viewBox="0 0 500 500" enable-background="new 0 0 500 500" xml:space="preserve">
<g>
	<g>
		<path fill="#EC8B24" d="M161.8,266.6c7.7-1.9,16.6,1.3,20.3,8.5c5,9.3,9.9,18.7,14.9,28c3.3,5.5,3.2,12.8,0.1,18.3
			c-3.2,4.8-7.7,8.3-11.5,12.6c-24.3,25.6-48.8,51-73,76.6c-3.8,3.6-6.9,9.3-12.8,9.3c-6.7,1.6-11.7-3.8-16.5-7.5
			c-12.2-10-24.4-20-36.6-29.8c-6.6-5.3-11.3-12.9-12.8-21.3c-3.8-20.4-7.4-40.8-11.2-61.2c-1.6-6.1,2.4-13.3,8.9-14
			C74.9,279.6,118.4,273.1,161.8,266.6z"/>
	</g>
</g>
</svg>