<svg version="1.1" id="Layer_1" xmlns="http://www.w3.org/2000/svg" xmlns:xlink="http://www.w3.org/1999/xlink" x="0px" y="0px"
    height="128px" width="128px"
     viewBox="0 0 128 128" enable-background="new 0 0 128 128" xml:space="preserve">
	<g>
		<g>
			<path fill="#000" d="M125.8,49.6c-1.7-1.7-3.7-2.5-6.2-2.5H81.8V9.7c0-2.4-0.8-4.4-2.5-6.1C77.6,1.9,75.5,1,73.1,1H55.6&#xA;			c-2.4,0-4.5,0.8-6.2,2.5c-1.7,1.7-2.5,3.7-2.5,6.1V47H9.1c-2.4,0-4.5,0.8-6.2,2.5c-1.7,1.7-2.5,3.7-2.5,6.1v17.3&#xA;			c0,2.4,0.8,4.4,2.5,6.1c1.7,1.7,3.8,2.5,6.2,2.5h37.8v37.4c0,2.4,0.8,4.4,2.5,6.1c1.7,1.7,3.8,2.5,6.2,2.5h17.4&#xA;			c2.4,0,4.5-0.8,6.2-2.5c1.7-1.7,2.5-3.7,2.5-6.1V81.5h37.8c2.4,0,4.5-0.8,6.2-2.5c1.7-1.7,2.5-3.7,2.5-6.1V55.7&#xA;			C128.3,53.3,127.5,51.2,125.8,49.6L125.8,49.6z M125.8,49.6" />
		</g>
	</g>
</svg>