<svg version="1.1" id="Layer_1" xmlns="http://www.w3.org/2000/svg" xmlns:xlink="http://www.w3.org/1999/xlink" x="0px" y="0px"
    height="128px" width="128px"
     viewBox="0 0 128 128" enable-background="new 0 0 128 128" xml:space="preserve">
	<g>
		<g id="Layer_3">
			<path d="m127.4,49.6c0,-2 -1.4,-3.2 -4.3,-3.7l-38.3,-5.8l-17.10001,-36.4c-1,-2.2 -2.2,-3.3 -3.7,-3.3c-1.5,0 -2.8,1.1 -3.7,3.3l-17.2,36.4l-38.3,5.8c-2.8,0.5 -4.3,1.7 -4.3,3.7c0,1.1 0.6,2.4 1.9,3.8l27.7,28.3l-6.6,40c-0.1,0.7 -0.2,1.3 -0.2,1.60001c0,1.1 0.3,2.1 0.8,2.8c0.5,0.8 1.3,1.2 2.4,1.2c0.9,0 1.9,-0.3 3.1,-1l34.4,-18.9l34.20001,18.9c1.10001,0.6 2.10001,1 3.10001,1c1,0 1.8,-0.4 2.3,-1.2c0.5,-0.8 0.8,-1.7 0.8,-2.8c0,-0.7 0,-1.2 -0.1,-1.60001l-6.60001,-40l27.7,-28.3c1.4,-1.4 2,-2.7 2,-3.8l0,0zm0,0" fill="#000000" />
		</g>
	</g>
</svg>