<svg version="1.1" id="Layer_1" xmlns="http://www.w3.org/2000/svg" xmlns:xlink="http://www.w3.org/1999/xlink" x="0px" y="0px" height="128px" width="128px" viewBox="0 0 128 128" enable-background="new 0 0 128 128" xml:space="preserve">
     <g>
<g id="Layer_7">
	 <g id="svg_2">
     <path id="svg_3" d="m125.1,29.4l-11.1,-11.1c-1.5,-1.5 -3.4,-2.3 -5.5,-2.3c-2.2,0 -4,0.8 -5.5,2.3l-53.6,53.6l-24,-24.1c-1.5,-1.5 -3.4,-2.3 -5.6,-2.3s-4,0.8 -5.5,2.3l-11.1,11.1c-1.5,1.5 -2.2,3.4 -2.2,5.6c0,2.2 0.8,4 2.3,5.5l29.5,29.5l11.1,11.1c1.5,1.5 3.4,2.3 5.5,2.3c2.2,0 4,-0.8 5.5,-2.3l11.1,-11.1l59.1,-59.1c1.5,-1.5 2.3,-3.4 2.3,-5.5c0,-2.2 -0.7,-4 -2.3,-5.5l0,0zm0,0" fill="#000"/>
    </g>
</g>

</g>
</svg>