<svg version="1.1" id="Layer_1" xmlns="http://www.w3.org/2000/svg" xmlns:xlink="http://www.w3.org/1999/xlink" x="0px" y="0px"
    height="500px" width="500px"
     viewBox="0 0 500 500" enable-background="new 0 0 500 500" xml:space="preserve">
<g>
	<g>
		<path fill="#0B85C8" d="M425.1,81.1c4.1-1.7,9.3-0.7,12.2,2.8c14.5,16.5,28.9,33.2,43.4,49.7c6,6.5,10.1,15,10.8,23.8
			c1.8,21.3,3.6,42.5,5.5,63.7c0.6,6-4.1,12.2-10.4,12.2c-42.9,2.5-85.8,4.4-128.7,6.8c-7.9,0.6-15.6-4.1-19.1-11.1
			c-5.2-9.9-10.5-19.7-15.8-29.5c-3.6-5.9-3.3-14.1,1.2-19.4c30-30.2,60.5-60,90.5-90.2C417.9,86.9,420.9,83.2,425.1,81.1z"/>
	</g>
</g>
</svg>