<svg version="1.1" id="Layer_1" xmlns="http://www.w3.org/2000/svg" xmlns:xlink="http://www.w3.org/1999/xlink" x="0px" y="0px"
    height="500px" width="500px"
     viewBox="0 0 500 500" enable-background="new 0 0 500 500" xml:space="preserve">
<g>
	<g>
		<path fill="#892062" d="M230.8,14.7c4.3-3.7,10.3-2.7,15.5-2.8c21.1-0.2,42.3-0.8,63.4-0.6c13.7,0.4,24.8,9,36.1,15.6
			c19.5,11.5,38.9,23.2,58.4,34.8c4.2,2.3,6,8.4,3.1,12.4c-2.7,3.4-6,6.3-8.8,9.5c-25.9,26.4-51.7,52.9-77.6,79.2
			c-4.2,4.7-8.7,9.9-15.2,11.3c-7,2.1-13.9-1.2-20.5-3.2c-6.7-2.3-13.5-4.4-20.3-6.6c-7.6-2.2-13.6-9.1-14.8-16.9
			c-1.7-9.5-3.3-19.1-5.1-28.6c-2.2-12.2-4.3-24.5-6.5-36.8c-3.2-18.6-6.5-37.3-9.8-55.9C228,22.3,227.8,17.8,230.8,14.7z"/>
	</g>
</g>
</svg>