<svg version="1.1" id="Layer_1" xmlns="http://www.w3.org/2000/svg" xmlns:xlink="http://www.w3.org/1999/xlink" x="0px" y="0px"
    height="500px" width="500px"
     viewBox="0 0 500 500" enable-background="new 0 0 500 500" xml:space="preserve">
<g>
	<g>
		<path fill="#2B308B" d="M242.6,178c4.9-1.6,10.3-1.6,15.1,0c10.3,3.4,20.6,7,30.9,10.4c6.5,2,12.3,6.7,15.4,12.8
			c7.1,14.1,14.5,28,21.5,42.2c4.8,11.1-1.1,22.4-3.9,33.1c-2.7,8.9-4.4,19.9-13.7,24.6c-11.2,4.9-22.7,9.2-33.9,13.9
			c-5.7,2.3-11.5,5.2-17.8,5.3c-6.6,0.5-12.8-2.1-19-3.9c-5.6-1.8-11.7-2.7-16.4-6.5c-4.8-3.3-7.4-8.7-10.2-13.6
			c-5.7-10.3-11.7-20.5-17.4-30.8c-3.5-6.1-4.1-13.7-2.1-20.4c2.8-10.8,5.6-21.6,8.5-32.5c1.7-7.1,6.3-13.5,12.8-16.8
			C222.5,189.7,232.2,183.2,242.6,178z"/>
	</g>
</g>
</svg>