<svg version="1.1" id="Layer_1" xmlns="http://www.w3.org/2000/svg" xmlns:xlink="http://www.w3.org/1999/xlink" x="0px" y="0px"
    height="500px" width="500px"
     viewBox="0 0 500 500" enable-background="new 0 0 500 500" xml:space="preserve">
<g>
	<g>
		<path fill="#DB2C29" d="M51.9,118.4c3.9-1.7,8.6-1.3,12.2,1.1c35,22.3,69.9,44.8,104.9,67.2c4.8,3.1,10.3,5.7,12.9,11.1
			c3.5,6.5,1.4,14-0.1,20.7c-1.5,6.4-2.4,12.9-4,19.3c-1.7,6.7-7.9,11.8-14.7,12.6c-42.4,6.6-84.8,13.1-127.2,19.8
			c-4.3,0.6-8.9,2-13.1,0.4c-3.5-1.7-6.9-4.6-7.5-8.7c-3.5-18.8-6.8-37.6-10.4-56.4c-2.5-9.6-2.3-20.5,3.6-28.9
			c11.9-16.8,23.8-33.5,35.6-50.3C46.4,123.4,48.2,119.7,51.9,118.4z"/>
	</g>
</g>
</svg>