<svg width="500" height="500" xmlns="http://www.w3.org/2000/svg">
 <g
     id="g4"
     transform="matrix(0.97599282,0,0,1.0009396,7.7720276,-0.30580384)">
    <g
       id="g3377-9-2"
       stroke-miterlimit="4"
       style="fill:none;stroke:#000000;stroke-width:13.05850029;stroke-miterlimit:4">
      <path
         d="m 443.86099,246.621 c 13.97202,-0.63901 27.944,-1.705 41.91501,-2.02501 6.09299,-0.63899 11.66101,5.328 11.241,11.40201 0.315,13.532 -0.526,26.95799 -0.42099,40.49001 -1.155,12.89301 1.89099,26.53198 -3.57101,38.67899 -2.41699,6.60602 -7.564,11.508 -11.871,16.836 -14.077,16.83502 -28.258,33.564 -42.33499,50.293 -2.62601,3.09 -6.93301,4.901 -10.92499,3.729 -5.043,-1.065 -7.77402,-5.85999 -11.13602,-9.26999 -27.83798,-29.94202 -55.57098,-60.09601 -83.51401,-89.931 -5.56799,-6.07401 -7.66898,-15.237 -5.46298,-23.229 1.78598,-6.71301 3.362,-13.63901 5.358,-20.245 1.89099,-6.71301 8.61398,-11.29501 15.33701,-11.828 31.82999,-1.59801 63.55499,-3.30301 95.38498,-4.901 l 0,0 z"
         id="path3379-0-0"
         stroke-miterlimit="4"
         style="fill:none;stroke:#000000;stroke-width:13.05850029;stroke-miterlimit:4" />
    </g>
  </g>
</svg>