<svg version="1.1" id="Layer_1" xmlns="http://www.w3.org/2000/svg" xmlns:xlink="http://www.w3.org/1999/xlink" x="0px" y="0px"
    height="128px" width="128px"
     viewBox="0 0 128 128" enable-background="new 0 0 128 128" xml:space="preserve">
   <g>
    <g id="svg_2">
     <path fill="#000000" d="m119.4,31.4c-5.7,-9.7 -13.5,-17.4 -23.2,-23c-9.8,-5.7 -20.5,-8.5 -32.1,-8.5c-11.6,0 -22.3,2.8 -32.1,8.5c-9.8,5.7 -17.5,13.3 -23.2,23c-5.7,9.7 -8.6,20.3 -8.6,31.7c0,11.5 2.9,22 8.6,31.7c5.7,9.7 13.5,17.39999 23.2,23c9.8,5.7 20.5,8.5 32.1,8.5c11.6,0 22.3,-2.8 32.1,-8.5c9.8,-5.7 17.5,-13.3 23.2,-23c5.7,-9.7 8.6,-20.3 8.6,-31.7c0,-11.4 -2.9,-22 -8.6,-31.7l0,0zm-16.1,54.2c-4,6.9 -9.5,12.3 -16.5,16.3c-6.9,4 -14.5,6 -22.7,6c-8.2,0 -15.8,-2 -22.7,-6c-6.9,-4 -12.4,-9.4 -16.5,-16.3c-4,-6.9 -6.1,-14.4 -6.1,-22.5c0,-8.1 2,-15.6 6.1,-22.5c4,-6.9 9.5,-12.3 16.5,-16.3c6.9,-4 14.5,-6 22.7,-6c8.2,0 15.8,2 22.7,6c6.89999,4 12.39999,9.4 16.5,16.3c4,6.9 6.1,14.4 6.1,22.5c-0.1,8.2 -2.1,15.7 -6.1,22.5l0,0zm0,0" id="svg_3"/>
     <path fill="#000000" d="m72.1,31.5l-5.3,0c-0.8,0 -1.4,0.2 -1.9,0.7c-0.5,0.5 -0.7,1.1 -0.7,1.9l0,29l-18.7,0c-0.8,0 -1.4,0.2 -1.9,0.7c-0.5,0.5 -0.7,1.1 -0.7,1.9l0,5.3c0,0.8 0.2,1.4 0.7,1.9c0.5,0.5 1.1,0.7 1.9,0.7l26.6,0c0.8,0 1.4,-0.2 1.9,-0.7c0.5,-0.5 0.8,-1.1 0.8,-1.9l0,-36.8c0,-0.8 -0.3,-1.4 -0.8,-1.9c-0.5,-0.5 -1.1,-0.8 -1.9,-0.8l0,0zm0,0" id="svg_4"/>
    </g>
   </g>
</svg>